<svg id="Capa_1" data-name="Capa 1" xmlns="http://www.w3.org/2000/svg" viewBox="0 0 1080 436.5"><defs><style>.cls-1{fill:#0073c6;}</style></defs><path class="cls-1" d="M538.73,307.74v-34h24.9v6.89H545.84v6.66H559v6.54h-13.2v13.2h18.37v6.89H538.73v-6.2"/><path class="cls-1" d="M602,308.26c3,0,4.71-1.44,4.71-2.64,0-3.73-16.87-2-16.87-12.06,0-5.16,4.53-8.78,10.84-8.78,5.46,0,9.93,2.7,11.77,7.92l-5.74,3.1c-.8-2.41-2.7-4.88-6-4.88-2.41,0-4.07,1.32-4.07,2.64,0,3.79,16.87,2,16.87,12.06,0,5.16-4.65,8.78-11.53,8.78-5.86,0-11-2.7-13.38-7.92l5.74-3.1C595.71,305.79,598.12,308.26,602,308.26Z"/><path class="cls-1" d="M663.08,306.48c-2.46,5.22-6.71,7.92-11.88,7.92-7.75,0-13-5.91-13-14.81s5.28-14.81,13-14.81a11.47,11.47,0,0,1,11.31,7.92l-5.74,3c-1-2.41-2.64-4.25-5.45-4.25-3.5,0-6.26,2.93-6.26,8.15s2.76,8.15,6.26,8.15c2.81,0,4.47-1.84,6-4.25Z"/><path class="cls-1" d="M700.49,284.78c8.33,0,13.89,5.92,13.89,14.81s-5.56,14.81-13.89,14.81-13.88-5.91-13.88-14.81S692.17,284.78,700.49,284.78Zm0,23c4.14,0,6.89-3.27,6.89-8.15s-2.75-8.15-6.89-8.15-6.88,3.27-6.88,8.15S696.36,307.74,700.49,307.74Z"/><path class="cls-1" d="M739.63,271.47h6.89v42.47h-6.89Z"/><path class="cls-1" d="M784.1,284.78a9.94,9.94,0,0,1,7.29,2.87v-2.41h6.89v20.21c0,1.43.75,2.18,2,2.18h.86v6.31h-1.43a6.5,6.5,0,0,1-6.32-3.85c-1.84,2.76-4.65,4.31-8.67,4.31-7.69,0-13-5.91-13-14.81S777,284.78,784.1,284.78Zm1,23c3.85,0,6.31-3.27,6.31-8.15s-2.46-8.15-6.31-8.15-6.31,3.27-6.31,8.15S781.23,307.74,785.08,307.74Z"/><path class="cls-1" d="M837.13,285.24h4.76v6.66h-5.45a2.5,2.5,0,0,0-2.59,2.76v19.28H827V295.46C827,288.86,830.52,285.24,837.13,285.24Z"/><path class="cls-1" d="M633.3,212.15c0,21.61-17.92,37.86-46.92,37.86-29.92,0-45.81-17.91-47.65-20.13L547.59,214c10.35,11.46,24.57,18.29,39.16,18.29,18.66,0,28.82-7.57,28.82-19.39,0-10-11.27-16.07-28.26-19C552.77,188,543,175.57,543,159c0-20.14,15.7-36,44.7-36,5.17,0,24.75.55,40.08,14.78l-8.5,16.07a44.07,44.07,0,0,0-32-13.12c-17,0-26.6,6.47-26.6,17.55,0,9.6,8.5,14,28.08,17.92C618.34,181.85,633.3,191.28,633.3,212.15Z"/><path class="cls-1" d="M759.13,141.83V124.41h82.76v17.42Zm32.51,106.71v-96.6h17.74v96.6Z"/><polygon class="cls-1" points="694.2 248.54 766.65 248.54 707.54 121.45 648.43 248.54 667.64 248.54 679.65 221.94 679.71 221.94 707.54 160.61 740.62 233.42 694.2 233.42 694.2 248.54"/><path class="cls-1" d="M270.91,324.1l-10.41-1.28a4,4,0,0,0-2.66.6l-15.2,9.65a1.13,1.13,0,0,0,.7,2.08A204,204,0,0,1,310.52,341a173.65,173.65,0,0,1,28,9.9,136.26,136.26,0,0,1,22.71,13,114.9,114.9,0,0,0-19.6-14.15A121.74,121.74,0,0,0,328,343.05a165.88,165.88,0,0,0-29.55-9.36,196.65,196.65,0,0,0-29.22-4.45l-1.79-.11c-.22,0-.68,0-.72-.39s.21-.45.43-.62l.62-.48,3.17-2.38c.08-.06.43-.29.48-.55a.56.56,0,0,0-.13-.41A.57.57,0,0,0,270.91,324.1Z"/><path class="cls-1" d="M391.19,303.77c12-3.79,52.37-13,55.56-13.65a3.55,3.55,0,0,1,2,.19l53.24,21c2.81,1.11,2.16,4.58-.92,5-113.23,14.07-128.55,43.75-128.55,43.75,11.65-29.59,89.89-44.55,104.21-47.05a.65.65,0,0,0,.11-1.24L443,298.18a3.69,3.69,0,0,0-2-.21c-6.28,1.07-42.49,9.49-47.79,10.78C389.28,309.69,387.4,305,391.19,303.77Z"/><path class="cls-1" d="M350.74,303.77c-12-3.79-52.37-13-55.55-13.65a3.58,3.58,0,0,0-2.05.19l-53.24,21c-2.81,1.11-2.16,4.58.92,5,113.23,14.07,128.55,43.75,128.55,43.75-11.28-28.66-85-43.59-102.66-46.78a1.1,1.1,0,0,1-.2-2.1l32.42-13a3.7,3.7,0,0,1,2-.21c6.28,1.07,42.49,9.49,47.8,10.78C352.65,309.69,354.54,305,350.74,303.77Z"/><path class="cls-1" d="M470.19,324.1l10.41-1.28a4,4,0,0,1,2.66.6l15.2,9.65a1.13,1.13,0,0,1-.7,2.08A204,204,0,0,0,430.58,341a173.65,173.65,0,0,0-28,9.9,136.26,136.26,0,0,0-22.71,13,114.9,114.9,0,0,1,19.6-14.15,120.89,120.89,0,0,1,13.58-6.65,165.88,165.88,0,0,1,29.55-9.36,196.65,196.65,0,0,1,29.22-4.45l1.79-.11c.22,0,.68,0,.72-.39s-.21-.45-.43-.62l-.62-.48-3.17-2.38c-.08-.06-.43-.29-.48-.55a.56.56,0,0,1,.13-.41A.57.57,0,0,1,470.19,324.1Z"/><path class="cls-1" d="M372.92,312.77V230.14a22.71,22.71,0,1,0-4.07,0v82.61Z"/><path class="cls-1" d="M374.12,171.29a4.06,4.06,0,0,0,.69-8.1,44.41,44.41,0,0,0-35.88,75,4.06,4.06,0,1,0,5.87-5.62A36.68,36.68,0,0,1,336.28,218a36.26,36.26,0,0,1,10-37.1A36.37,36.37,0,0,1,374.12,171.29Z"/><path class="cls-1" d="M320.07,135.39l11.53,17.72a65.81,65.81,0,0,0-6.08,4.9,4,4,0,0,0,2.69,6.93,3.94,3.94,0,0,0,2.69-1,57.06,57.06,0,0,1,38.6-15,4,4,0,0,0,1.88-7.48h.26v-35a17.25,17.25,0,1,0-4.24.09V141a65,65,0,0,0-32.28,9.76L323.6,133c.09-.1.2-.19.29-.29a9.95,9.95,0,1,0-3.82,2.65Z"/><path class="cls-1" d="M343.93,256.85a57.26,57.26,0,0,1-28.73-69.16,4,4,0,0,0-7.57-2.5,64.78,64.78,0,0,0-2.69,12l-22.26-.09h0a15.57,15.57,0,1,0,0,4.09v.15l21.83.09c-.09,1.41-.17,2.83-.17,4.25a64.92,64.92,0,0,0,13.37,39.58L293.8,264.18l-.25-.22a8.93,8.93,0,1,0,2.7,3.69l24.14-19.12a65.63,65.63,0,0,0,15.84,13.11L332,271.88a6.74,6.74,0,0,0-1.61.1,7.2,7.2,0,1,0,5.75,1.47l4-9.61.25.14a4,4,0,0,0,1.78.42,4,4,0,0,0,1.78-7.55Z"/><path class="cls-1" d="M480.64,185.27a13.7,13.7,0,0,0-13.46,11.18H434l0-.42a65.77,65.77,0,0,0-19.39-37.34l7.66-10.09a12.17,12.17,0,0,0,2.21,1,12.84,12.84,0,1,0-5.6-3.52l-7.42,9.77a64.29,64.29,0,0,0-23.09-12.57,4,4,0,1,0-2.29,7.63,57.56,57.56,0,0,1,40.71,54.78,56.93,56.93,0,0,1-2.95,18.17,4,4,0,1,0,7.56,2.54,65.11,65.11,0,0,0,3.36-20.71c0-1.55-.09-3.1-.2-4.64h32.66a13.69,13.69,0,1,0,13.51-15.76Z"/><path class="cls-1" d="M412.55,276.76l-.24.08-9.08-15.43a64.15,64.15,0,0,0,8.25-5.89,4,4,0,1,0-5.14-6.09A57.14,57.14,0,0,1,390,259.08a4,4,0,0,0,1.43,7.7,3.78,3.78,0,0,0,1.43-.27,63.06,63.06,0,0,0,6.63-3l9.12,15.5a8.12,8.12,0,1,0,3.91-2.21Z"/><path class="cls-1" d="M437.15,240.44,411.42,225.9a44.35,44.35,0,0,0,1.06-34.4,4.06,4.06,0,0,0-7.58,2.93,36.23,36.23,0,0,1-6.81,37.19,36.61,36.61,0,0,1-14.43,9.87,4.06,4.06,0,0,0,1.07,7.85,4,4,0,0,0,1.77-.24,44.32,44.32,0,0,0,23.06-19.59L435,243.92a6.17,6.17,0,0,0,1.41,5.57,6.25,6.25,0,1,0,.7-9.05Z"/><circle class="cls-1" cx="370.78" cy="318.98" r="12.82"/></svg>